<svg width="167" height="36" viewBox="0 0 167 36" fill="none" xmlns="http://www.w3.org/2000/svg">
<path d="M1 8.08667V22.2383L16.1582 8.08667L30.8195 22.2383V8.08667L16.1582 22.2383L1 8.08667Z" stroke="white" stroke-width="2"/>
<path d="M30.8195 23.2491H1V35H30.8195V23.2491Z" stroke="white" stroke-width="2"/>
<rect x="13.4069" y="4.06351" width="3.74669" height="3.74669" transform="rotate(-45 13.4069 4.06351)" stroke="white" stroke-width="2"/>
<path d="M52.1553 27.293C56.0493 27.293 58.9668 24.937 59.5161 21.4336L59.5283 21.3115H56.8184L56.7817 21.4214C56.1226 23.6553 54.499 24.876 52.1553 24.876C48.896 24.876 46.7842 22.2637 46.7842 18.1865V18.1743C46.7842 14.0972 48.8838 11.5093 52.1553 11.5093C54.5234 11.5093 56.1592 12.7666 56.7451 14.8296L56.8184 15.0737H59.5283L59.5039 14.9639C58.9546 11.4849 56.0371 9.09229 52.1553 9.09229C47.1626 9.09229 43.9888 12.5835 43.9888 18.1743V18.1865C43.9888 23.7773 47.1626 27.293 52.1553 27.293ZM61.7866 27H64.4233V19.5659C64.4233 17.564 65.6318 16.1724 67.4507 16.1724C69.3062 16.1724 70.3804 17.4419 70.3804 19.5659V27H73.0171V19.0654C73.0171 15.9648 71.2104 13.9141 68.4639 13.9141C66.5474 13.9141 65.168 14.7808 64.4844 16.27H64.4233V9.38525H61.7866V27ZM81.0615 27.2563C84.1743 27.2563 86.1519 25.4009 86.5669 23.3623L86.5913 23.228H84.0889L84.0522 23.3257C83.7227 24.29 82.6851 25.0957 81.1226 25.0957C79.0229 25.0957 77.6924 23.6797 77.6436 21.2505H86.7378V20.3594C86.7378 16.502 84.5283 13.9141 80.9272 13.9141C77.3262 13.9141 75.0068 16.5996 75.0068 20.6157V20.6279C75.0068 24.6807 77.2896 27.2563 81.0615 27.2563ZM80.9395 16.0747C82.6606 16.0747 83.9058 17.1611 84.1255 19.3828H77.6802C77.9121 17.2344 79.2305 16.0747 80.9395 16.0747ZM93.5981 27.2563C96.6255 27.2563 98.8228 25.645 98.8228 23.3013V23.2891C98.8228 21.4458 97.8218 20.4082 95.1973 19.7979L93.1099 19.3218C91.7305 18.9922 91.2056 18.4551 91.2056 17.6616V17.6494C91.2056 16.624 92.0967 15.9526 93.5127 15.9526C95.002 15.9526 95.8809 16.7339 96.0396 17.8569L96.0518 17.9424H98.5298L98.5176 17.7959C98.3833 15.6108 96.5522 13.9141 93.5127 13.9141C90.5586 13.9141 88.5566 15.4888 88.5566 17.7837V17.7959C88.5566 19.6636 89.7651 20.8354 92.2065 21.397L94.3062 21.873C95.6855 22.2026 96.1494 22.6787 96.1494 23.5088V23.521C96.1494 24.5586 95.1973 25.2178 93.6104 25.2178C91.9868 25.2178 91.1079 24.522 90.8638 23.3379L90.8394 23.2158H88.2271L88.2393 23.3257C88.5078 25.6694 90.3877 27.2563 93.5981 27.2563ZM105.683 27.2563C108.71 27.2563 110.908 25.645 110.908 23.3013V23.2891C110.908 21.4458 109.907 20.4082 107.282 19.7979L105.195 19.3218C103.815 18.9922 103.291 18.4551 103.291 17.6616V17.6494C103.291 16.624 104.182 15.9526 105.598 15.9526C107.087 15.9526 107.966 16.7339 108.125 17.8569L108.137 17.9424H110.615L110.603 17.7959C110.468 15.6108 108.637 13.9141 105.598 13.9141C102.644 13.9141 100.642 15.4888 100.642 17.7837V17.7959C100.642 19.6636 101.85 20.8354 104.292 21.397L106.391 21.873C107.771 22.2026 108.234 22.6787 108.234 23.5088V23.521C108.234 24.5586 107.282 25.2178 105.695 25.2178C104.072 25.2178 103.193 24.522 102.949 23.3379L102.924 23.2158H100.312L100.324 23.3257C100.593 25.6694 102.473 27.2563 105.683 27.2563ZM113.276 27H115.766V13.9995H115.852L121.162 27H123.188L128.498 13.9995H128.583V27H131.074V9.38525H127.924L122.211 23.4478H122.138L116.438 9.38525H113.276V27ZM137.434 27.2319C139.13 27.2319 140.62 26.353 141.364 24.9736H141.413V27H144.062V18.1499C144.062 15.5742 142.072 13.9141 138.935 13.9141C135.773 13.9141 133.857 15.6108 133.674 17.8203L133.662 17.9546H136.152L136.176 17.8447C136.396 16.8193 137.336 16.0991 138.862 16.0991C140.498 16.0991 141.413 16.9536 141.413 18.3696V19.334L137.922 19.5415C134.882 19.7246 133.149 21.0918 133.149 23.3257V23.3501C133.149 25.6572 134.87 27.2319 137.434 27.2319ZM135.81 23.2891V23.2646C135.81 22.1782 136.689 21.4824 138.276 21.3848L141.413 21.1895V22.1904C141.413 23.8628 140.009 25.1201 138.154 25.1201C136.738 25.1201 135.81 24.4121 135.81 23.2891ZM151.13 27.2563C151.667 27.2563 152.167 27.1953 152.473 27.1465V25.1079C152.277 25.1323 152.045 25.1567 151.765 25.1567C150.654 25.1567 150.068 24.7661 150.068 23.46V16.2578H152.473V14.1582H150.068V10.8135H147.37V14.1582H145.527V16.2578H147.37V23.6187C147.37 26.1821 148.591 27.2563 151.13 27.2563ZM159.821 27.2563C162.934 27.2563 164.912 25.4009 165.327 23.3623L165.351 23.228H162.849L162.812 23.3257C162.482 24.29 161.445 25.0957 159.882 25.0957C157.783 25.0957 156.452 23.6797 156.403 21.2505H165.498V20.3594C165.498 16.502 163.288 13.9141 159.687 13.9141C156.086 13.9141 153.767 16.5996 153.767 20.6157V20.6279C153.767 24.6807 156.049 27.2563 159.821 27.2563ZM159.699 16.0747C161.42 16.0747 162.666 17.1611 162.885 19.3828H156.44C156.672 17.2344 157.99 16.0747 159.699 16.0747Z" fill="white"/>
</svg>
